<svg id="Capa_1" enable-background="new 0 0 512 512" height="512" viewBox="0 0 512 512" width="512" xmlns="http://www.w3.org/2000/svg"><g><path d="m7.5 70.268v348.561h248.5l20-207.744-20-160.817z" fill="#07485e"/><path d="m504.5 70.268-248.5-20v368.561h248.5z" fill="#04303e"/><path d="m7.5 0v70.268h248.5l20-35.134-20-35.134z" fill="#e1ebf0"/><path d="m256 0h248.5v70.268h-248.5z" fill="#b4d2d7"/><g><path d="m256 512c-25.688 0-46.585-20.898-46.585-46.585s20.898-46.585 46.585-46.585l10 15.671-10 14.329c-9.145 0-16.585 7.44-16.585 16.585s7.44 16.585 16.585 16.585l10 16z" fill="#e1ebf0"/></g><g><path d="m256 512v-30c9.145 0 16.585-7.44 16.585-16.585s-7.44-16.585-16.585-16.585v-30c25.688 0 46.585 20.898 46.585 46.585s-20.897 46.585-46.585 46.585z" fill="#b4d2d7"/></g><g><path d="m243.653 199.402-43.849-43.849-41.787 41.787h-33.582l-62.054 32.66 13.973 26.547 55.494-29.207h38.596l29.36-29.361 31.423 31.423h24.773l10-18.652-10-11.348z" fill="#00b6bd"/><path d="m389.703 106.861-39.898 39.898h-31.907l-52.644 52.643h-9.254v30h21.68l52.644-52.643h31.908l48.684-48.685z" fill="#00969b"/></g><path d="m223.861 266.083-56.595 16.324h-50.44l-58.736 66.977 22.555 19.781 49.774-56.758h41.087l54.645-15.761 29.849 3.941 20-16.254-20-14.006z" fill="#ffe477"/><path d="m364.388 221.069-65.853 54.875-42.535-5.617v30.26l51.641 6.82 62.693-52.241 41.042 14.956 10.271-28.186z" fill="#ffb655"/><g><path d="m256 376.962h-201.633v-270.294h30v240.294h171.633l20 12.312z" fill="#5a93c8"/></g><g><path d="m256 346.962h202.099v30h-202.099z" fill="#446bae"/></g></g></svg>